<svg xmlns="http://www.w3.org/2000/svg"  viewBox="0 0 24 24" width="24px" height="24px"><path d="M20,11h-1V6c0-0.6-0.4-1-1-1h-5V4c0-1.1-0.9-2-2-2S9,2.9,9,4v1H4C3.4,5,3,5.4,3,6v5h1c1.1,0,2,0.9,2,2s-0.9,2-2,2H3v5 c0,0.6,0.4,1,1,1h5v-1c0-1.1,0.9-2,2-2s2,0.9,2,2v1h5c0.6,0,1-0.4,1-1v-5h1c1.1,0,2-0.9,2-2S21.1,11,20,11z" opacity=".3"/><path d="M18,22h-6v-2c0-0.6-0.4-1-1-1c-0.6,0-1,0.4-1,1v2H4c-1.1,0-2-0.9-2-2v-6h2c0.6,0,1-0.4,1-1c0-0.6-0.4-1-1-1H2V6 c0-1.1,0.9-2,2-2h4c0-1.7,1.3-3,3-3c1.7,0,3,1.3,3,3h4c1.1,0,2,0.9,2,2v4c1.7,0,3,1.3,3,3c0,1.7-1.3,3-3,3v4 C20,21.1,19.1,22,18,22z M14,20h4v-6h2c0.6,0,1-0.4,1-1c0-0.6-0.4-1-1-1h-2V6h-6V4c0-0.6-0.4-1-1-1c-0.6,0-1,0.4-1,1v2H4v4 c1.7,0,3,1.3,3,3c0,1.7-1.3,3-3,3v4h4c0-1.7,1.3-3,3-3C12.7,17,14,18.3,14,20z"/></svg>